<?xml version="1.0" encoding="utf-8"?>
<svg viewBox="-1 1.3177 622.7805 536.3015" xmlns="http://www.w3.org/2000/svg">
  <defs>
    <style>.cls-1{fill:url(#linear-gradient);}.cls-2{fill:#f6f6fa;}</style>
  </defs>
  <g transform="matrix(1, 0, 0, 1, -1.0000000149011612, 0)">
    <polygon class="cls-8" points="333.476 113.747 280.518 113.747 179.608 426.052 232.319 426.052 238.715 406.724 296.189 229.249 333.476 113.747" style="fill-rule: nonzero; paint-order: fill; fill: #551a8b;"/>
    <path d="M 252.074 425.513 C 469.525 438.048 480.395 227.811 319.619 216.003" style="paint-order: fill; fill: #551a8b;"/>
    <text style="fill: #551a8b; font-family: Arial, sans-serif; font-size: 160px; font-weight: 700; text-transform: lowercase; white-space: pre;" x="569.493" y="312.411">;</text>
    <text style="fill: #51638d; font-family: Constantia; font-size: 500px; white-space: pre;" transform="matrix(0.481914, 0, 0, 0.812114, -224.078922, -357.482671)" x="464.977" y="917.44">{</text>
    <text style="fill: #51638d; font-family: Constantia; font-size: 500px; white-space: pre;" transform="matrix(-0.481914, 0, 0, -0.812114, 795.281566, 896.419443)" x="464.977" y="917.44">{</text>
    <polygon class="cls-8" points="267.35 113.562 214.392 113.562 113.482 425.867 166.193 425.867 172.589 406.539 230.063 229.064 267.35 113.562" style="fill-rule: nonzero; paint-order: fill; fill: #91a0dd;"/>
    <ellipse style="stroke: rgb(0, 0, 0); fill: #060606;" cx="462.806" cy="399.081" rx="20.038" ry="20.038"/>
  </g>
</svg>